<svg width="36" height="29" viewBox="0 0 36 29" fill="none" xmlns="http://www.w3.org/2000/svg">
<g clip-path="url(#clip0_1556_512)">
<path d="M0.671875 14.9363C0.671875 15.2949 0.822917 15.6158 1.10612 15.8801L13.8126 28.6244C14.0957 28.8887 14.3978 29.0209 14.7377 29.0209C15.4551 29.0209 16.0026 28.4922 16.0026 27.7747C16.0026 27.4348 15.8705 27.095 15.6628 26.8685L9.99869 21.1667L4.42904 15.9935L8.80925 16.2012H34.4864C35.2038 16.2012 35.7324 15.6726 35.7324 14.9363C35.7324 14.1998 35.2038 13.6712 34.4864 13.6712H8.80925L4.42904 13.8789L9.99869 8.70572L15.6628 3.00391C15.8894 2.75846 16.0026 2.4375 16.0026 2.09766C16.0026 1.38021 15.4551 0.851562 14.7377 0.851562C14.3978 0.851562 14.0769 0.983725 13.7181 1.34245L1.10612 13.9922C0.822917 14.2566 0.671875 14.5775 0.671875 14.9363Z" fill="#313131"/>
</g>
<defs>
<clipPath id="clip0_1556_512">
<rect width="35.9048" height="29" fill="white"/>
</clipPath>
</defs>
</svg>
