<svg width="49" height="42" viewBox="0 0 49 42" fill="none" xmlns="http://www.w3.org/2000/svg">
<path fill-rule="evenodd" clip-rule="evenodd" d="M44.8932 40.7678C43.0998 41.8999 40.9313 42.2711 38.8649 41.7998C36.7985 41.3286 35.0034 40.0534 33.8745 38.2547L24.9456 24.0315L24.3125 23.0225V23.0349L22.194 19.8664C21.8682 19.3753 21.5793 18.8575 21.3027 18.3376C21.1427 18.0413 20.9405 17.7699 20.7024 17.5321C20.3754 17.2049 19.9871 16.9457 19.5599 16.7694C19.1327 16.5931 18.675 16.5032 18.2131 16.5047C17.3031 16.5139 16.4336 16.8831 15.7937 17.5318C15.1537 18.1806 14.795 19.0565 14.7956 19.9691C14.7956 20.4069 14.8761 20.8408 15.0332 21.2493C15.1808 21.6294 15.3344 22.0054 15.4655 22.3897L17.5882 28.7205C17.931 29.7419 18.0429 30.827 17.9157 31.8971C17.7885 32.9673 17.4253 33.9956 16.8526 34.9075L14.7525 38.2547C12.0604 42.0027 7.46887 43.1267 3.73381 40.7678C1.94039 39.6356 0.668873 37.8352 0.198957 35.7629C-0.270958 33.6905 0.0992237 31.5157 1.22807 29.7171L17.4509 3.8698C17.7287 3.42726 18.0507 3.01417 18.4118 2.63693C18.4147 2.63119 18.4189 2.62625 18.4241 2.62254C19.2528 1.70846 20.2811 0.998915 21.4285 0.54936C22.576 0.0998059 23.8115 -0.0775887 25.0386 0.0310355C26.2658 0.13966 27.4512 0.531361 28.5024 1.17554C29.5536 1.81971 30.442 2.69892 31.0983 3.74446L47.401 29.715C47.9602 30.6058 48.3389 31.5984 48.5155 32.636C48.6921 33.6737 48.6631 34.736 48.4302 35.7624C48.1973 36.7888 47.7651 37.7591 47.1582 38.618C46.5513 39.4768 45.7817 40.2073 44.8932 40.7678Z" fill="#4E4E4E"/>
</svg>
