<svg width="24" height="25" viewBox="0 0 24 25" fill="none" xmlns="http://www.w3.org/2000/svg">
<path d="M7.55016 22.0359C16.6045 22.0359 21.5583 14.5326 21.5583 8.02775C21.5583 7.81681 21.5536 7.60119 21.5442 7.39025C22.5079 6.69335 23.3395 5.83014 24 4.84119C23.1025 5.24049 22.1496 5.50127 21.1739 5.61462C22.2013 4.9988 22.9705 4.03136 23.3391 2.89166C22.3726 3.46445 21.3156 3.8685 20.2134 4.0865C19.4708 3.29745 18.489 2.775 17.4197 2.59994C16.3504 2.42487 15.2532 2.60694 14.2977 3.11799C13.3423 3.62903 12.5818 4.44059 12.1338 5.4272C11.6859 6.41381 11.5754 7.5205 11.8195 8.57619C9.86249 8.47798 7.94794 7.96959 6.19998 7.08399C4.45203 6.19838 2.90969 4.95533 1.67297 3.43541C1.0444 4.51913 0.852057 5.80153 1.13503 7.02198C1.418 8.24243 2.15506 9.30934 3.19641 10.0059C2.41463 9.98105 1.64998 9.77057 0.965625 9.39181V9.45275C0.964925 10.59 1.3581 11.6925 2.07831 12.5727C2.79852 13.4528 3.80132 14.0564 4.91625 14.2809C4.19206 14.479 3.43198 14.5079 2.69484 14.3652C3.00945 15.3433 3.62157 16.1988 4.44577 16.8122C5.26997 17.4257 6.26512 17.7665 7.29234 17.7871C5.54842 19.157 3.39417 19.9 1.17656 19.8965C0.783287 19.8959 0.390399 19.8718 0 19.8243C2.25286 21.2696 4.87353 22.0373 7.55016 22.0359Z" fill="#98A2B3"/>
</svg>
