<svg width="24" height="25" viewBox="0 0 24 25" fill="none" xmlns="http://www.w3.org/2000/svg">
<g clip-path="url(#clip0_1341_3305)">
<path d="M22.2234 0.285156H1.77187C0.792187 0.285156 0 1.05859 0 2.01484V22.5508C0 23.507 0.792187 24.2852 1.77187 24.2852H22.2234C23.2031 24.2852 24 23.507 24 22.5555V2.01484C24 1.05859 23.2031 0.285156 22.2234 0.285156ZM7.12031 20.7367H3.55781V9.28047H7.12031V20.7367ZM5.33906 7.71953C4.19531 7.71953 3.27188 6.79609 3.27188 5.65703C3.27188 4.51797 4.19531 3.59453 5.33906 3.59453C6.47813 3.59453 7.40156 4.51797 7.40156 5.65703C7.40156 6.79141 6.47813 7.71953 5.33906 7.71953ZM20.4516 20.7367H16.8937V15.168C16.8937 13.8414 16.8703 12.1305 15.0422 12.1305C13.1906 12.1305 12.9094 13.5789 12.9094 15.0742V20.7367H9.35625V9.28047H12.7687V10.8461H12.8156C13.2891 9.94609 14.4516 8.99453 16.1813 8.99453C19.7859 8.99453 20.4516 11.3664 20.4516 14.4508V20.7367Z" fill="#98A2B3"/>
</g>
<defs>
<clipPath id="clip0_1341_3305">
<rect width="24" height="24" fill="white" transform="translate(0 0.285156)"/>
</clipPath>
</defs>
</svg>
