<svg width="24" height="25" viewBox="0 0 24 25" fill="none" xmlns="http://www.w3.org/2000/svg">
<g clip-path="url(#clip0_1341_3302)">
<path d="M24 12.2852C24 5.65773 18.6274 0.285156 12 0.285156C5.37258 0.285156 0 5.65773 0 12.2852C0 18.2746 4.3882 23.2391 10.125 24.1394V15.7539H7.07812V12.2852H10.125V9.64141C10.125 6.63391 11.9166 4.97266 14.6576 4.97266C15.9701 4.97266 17.3438 5.20703 17.3438 5.20703V8.16016H15.8306C14.34 8.16016 13.875 9.08523 13.875 10.0352V12.2852H17.2031L16.6711 15.7539H13.875V24.1394C19.6118 23.2391 24 18.2746 24 12.2852Z" fill="#98A2B3"/>
</g>
<defs>
<clipPath id="clip0_1341_3302">
<rect width="24" height="24" fill="white" transform="translate(0 0.285156)"/>
</clipPath>
</defs>
</svg>
