<svg width="24" height="25" viewBox="0 0 24 25" fill="none" xmlns="http://www.w3.org/2000/svg">
<g clip-path="url(#clip0_1341_3304)">
<path d="M12 2.44609C15.2063 2.44609 15.5859 2.46016 16.8469 2.51641C18.0188 2.56797 18.6516 2.76484 19.0734 2.92891C19.6313 3.14453 20.0344 3.40703 20.4516 3.82422C20.8734 4.24609 21.1313 4.64453 21.3469 5.20234C21.5109 5.62422 21.7078 6.26172 21.7594 7.42891C21.8156 8.69453 21.8297 9.07422 21.8297 12.2758C21.8297 15.482 21.8156 15.8617 21.7594 17.1227C21.7078 18.2945 21.5109 18.9273 21.3469 19.3492C21.1313 19.907 20.8687 20.3102 20.4516 20.7273C20.0297 21.1492 19.6313 21.407 19.0734 21.6227C18.6516 21.7867 18.0141 21.9836 16.8469 22.0352C15.5813 22.0914 15.2016 22.1055 12 22.1055C8.79375 22.1055 8.41406 22.0914 7.15313 22.0352C5.98125 21.9836 5.34844 21.7867 4.92656 21.6227C4.36875 21.407 3.96563 21.1445 3.54844 20.7273C3.12656 20.3055 2.86875 19.907 2.65313 19.3492C2.48906 18.9273 2.29219 18.2898 2.24063 17.1227C2.18438 15.857 2.17031 15.4773 2.17031 12.2758C2.17031 9.06953 2.18438 8.68984 2.24063 7.42891C2.29219 6.25703 2.48906 5.62422 2.65313 5.20234C2.86875 4.64453 3.13125 4.24141 3.54844 3.82422C3.97031 3.40234 4.36875 3.14453 4.92656 2.92891C5.34844 2.76484 5.98594 2.56797 7.15313 2.51641C8.41406 2.46016 8.79375 2.44609 12 2.44609ZM12 0.285156C8.74219 0.285156 8.33438 0.299219 7.05469 0.355469C5.77969 0.411719 4.90313 0.617969 4.14375 0.913281C3.35156 1.22266 2.68125 1.63047 2.01563 2.30078C1.34531 2.96641 0.9375 3.63672 0.628125 4.42422C0.332812 5.18828 0.126563 6.06016 0.0703125 7.33516C0.0140625 8.61953 0 9.02734 0 12.2852C0 15.543 0.0140625 15.9508 0.0703125 17.2305C0.126563 18.5055 0.332812 19.382 0.628125 20.1414C0.9375 20.9336 1.34531 21.6039 2.01563 22.2695C2.68125 22.9352 3.35156 23.3477 4.13906 23.6523C4.90313 23.9477 5.775 24.1539 7.05 24.2102C8.32969 24.2664 8.7375 24.2805 11.9953 24.2805C15.2531 24.2805 15.6609 24.2664 16.9406 24.2102C18.2156 24.1539 19.0922 23.9477 19.8516 23.6523C20.6391 23.3477 21.3094 22.9352 21.975 22.2695C22.6406 21.6039 23.0531 20.9336 23.3578 20.1461C23.6531 19.382 23.8594 18.5102 23.9156 17.2352C23.9719 15.9555 23.9859 15.5477 23.9859 12.2898C23.9859 9.03203 23.9719 8.62422 23.9156 7.34453C23.8594 6.06953 23.6531 5.19297 23.3578 4.43359C23.0625 3.63672 22.6547 2.96641 21.9844 2.30078C21.3188 1.63516 20.6484 1.22266 19.8609 0.917969C19.0969 0.622656 18.225 0.416406 16.95 0.360156C15.6656 0.299219 15.2578 0.285156 12 0.285156Z" fill="#98A2B3"/>
<path d="M12 6.12109C8.59688 6.12109 5.83594 8.88203 5.83594 12.2852C5.83594 15.6883 8.59688 18.4492 12 18.4492C15.4031 18.4492 18.1641 15.6883 18.1641 12.2852C18.1641 8.88203 15.4031 6.12109 12 6.12109ZM12 16.2836C9.79219 16.2836 8.00156 14.493 8.00156 12.2852C8.00156 10.0773 9.79219 8.28672 12 8.28672C14.2078 8.28672 15.9984 10.0773 15.9984 12.2852C15.9984 14.493 14.2078 16.2836 12 16.2836Z" fill="#98A2B3"/>
<path d="M19.8469 5.87656C19.8469 6.67344 19.2 7.31563 18.4078 7.31563C17.6109 7.31563 16.9688 6.66875 16.9688 5.87656C16.9688 5.07969 17.6156 4.4375 18.4078 4.4375C19.2 4.4375 19.8469 5.08438 19.8469 5.87656Z" fill="#98A2B3"/>
</g>
<defs>
<clipPath id="clip0_1341_3304">
<rect width="24" height="24" fill="white" transform="translate(0 0.285156)"/>
</clipPath>
</defs>
</svg>
